<?xml version="1.0" encoding="utf-8"?>
<!-- Generator: Adobe Illustrator 22.0.1, SVG Export Plug-In . SVG Version: 6.00 Build 0)  -->
<svg version="1.1" id="Calque_1" xmlns="http://www.w3.org/2000/svg" xmlns:xlink="http://www.w3.org/1999/xlink" x="0px" y="0px"
	 viewBox="0 0 1392 668" style="enable-background:new 0 0 1392 668;" xml:space="preserve">
<style type="text/css">
	.st0{fill:#F1F4F6;}
	.st1{fill:#F1F4F6;stroke:#F1F4F6;stroke-miterlimit:10;}
</style>
<g>
	<g>
		<path class="st0" d="M420.7,256.5v212.8h-28.9V256.5H420.7z M502.9,343.8l-54,51.8l59.5,73.7h-35.7l-59.8-73.7l54-51.8H502.9z"/>
		<path class="st0" d="M557.7,435.4c1.6,4.3,4.2,7.5,7.6,9.7c3.5,2.2,7.8,3.3,13.1,3.3c5.6,0,10.5-1.2,14.7-3.5
			c4.2-2.4,7.5-5.6,9.8-9.8c2.4-4.2,3.5-9.1,3.5-14.7v-76.4H636v125.5h-29.5V450c-4,7.3-9.1,12.8-15.4,16.5
			c-6.3,3.7-13.8,5.6-22.5,5.6c-9.3,0-17.2-2-23.7-5.9c-6.5-3.9-11.5-9.5-14.9-16.8c-3.4-7.3-5-15.9-5-25.9v-79.7h30.3v76.4
			C555.2,426,556.1,431.1,557.7,435.4z"/>
		<path class="st0" d="M691.7,439.5c4,3,8.1,5.3,12.3,7c4.2,1.6,8.4,2.5,12.6,2.5c5.3,0,9.4-1.2,12.4-3.7c3-2.5,4.5-5.7,4.5-9.7
			c0-3.6-1.2-6.7-3.5-9.3c-2.4-2.5-5.6-4.8-9.8-6.8c-4.2-2-9.1-4-14.7-6c-5.6-2.2-11.2-4.8-16.8-7.8c-5.6-3-10.1-6.9-13.6-11.7
			c-3.5-4.8-5.3-11.1-5.3-18.7s2-14,6-19c4-5,9.3-8.8,15.8-11.3c6.5-2.5,13.6-3.8,21.3-3.8c6.9,0,13.4,1,19.4,2.9
			c6,1.9,11.5,4.5,16.5,7.9c5,3.4,9.2,7.1,12.7,11.3l-16.4,17.5c-4-4.7-9-8.7-14.9-11.9c-5.9-3.2-12-4.8-18.1-4.8
			c-4.2,0-7.6,0.9-10.4,2.7c-2.7,1.8-4.1,4.5-4.1,7.9c0,3.1,1.2,5.8,3.5,8.1c2.4,2.3,5.6,4.3,9.8,6.1c4.2,1.8,8.8,3.7,13.9,5.7
			c6.9,2.7,13.3,5.7,19.1,8.9c5.8,3.2,10.5,7.1,14.1,11.9c3.5,4.7,5.3,10.9,5.3,18.6c0,7.8-1.8,14.7-5.5,20.6
			c-3.6,5.9-8.8,10.5-15.6,13.8c-6.7,3.3-14.6,4.9-23.7,4.9c-8.6,0-16.4-1.3-23.6-4c-7.2-2.6-13.5-6-19-10.2
			c-5.5-4.2-10-8.7-13.6-13.6l17.2-17.2C683.6,432.7,687.7,436.5,691.7,439.5z"/>
		<path class="st0" d="M843.1,343.8v25.9h-71.2v-25.9H843.1z M822.1,300.2v169.2h-29.2V300.2H822.1z"/>
		<path class="st0" d="M862.6,372.5c5.9-9.8,14-17.5,24.3-23.1c10.3-5.5,21.8-8.3,34.5-8.3c12.9,0,24.5,2.8,34.7,8.3
			c10.2,5.6,18.2,13.2,24.1,23.1c5.9,9.8,8.9,21.2,8.9,34.1c0,12.7-3,24.1-8.9,34c-5.9,9.9-14,17.6-24.1,23.2
			c-10.2,5.6-21.7,8.3-34.7,8.3c-12.7,0-24.2-2.8-34.5-8.3c-10.3-5.5-18.4-13.3-24.3-23.2c-5.9-9.9-8.9-21.2-8.9-34
			C853.8,393.7,856.7,382.3,862.6,372.5z M889,427.2c3.3,5.9,7.7,10.6,13.4,13.9c5.6,3.4,12,5,19.1,5c7.1,0,13.5-1.7,19.1-5
			c5.6-3.4,10.1-8,13.4-13.9c3.3-5.9,4.9-12.8,4.9-20.6c0-7.8-1.6-14.7-4.9-20.6c-3.3-5.9-7.7-10.5-13.4-13.9c-5.6-3.4-12-5-19.1-5
			c-7.1,0-13.5,1.7-19.1,5c-5.6,3.4-10.1,8-13.4,13.9c-3.3,5.9-4.9,12.8-4.9,20.6C884.1,414.4,885.7,421.3,889,427.2z"/>
		<path class="st0" d="M1196.5,469.3H1167v-76.4c0-6.4-0.7-11.6-2.2-15.7c-1.5-4.1-3.7-7.2-6.8-9.3c-3.1-2.1-7-3.1-11.7-3.1
			c-5.1,0-9.5,1.1-13.2,3.3c-3.7,2.2-6.6,5.4-8.7,9.6c-2.1,4.2-3.1,9.3-3.1,15.3v76.4h-29.7v-76.4c0-6.4-0.7-11.6-2.2-15.7
			c-1.5-4.1-3.7-7.2-6.8-9.3c-3.1-2.1-7-3.1-11.7-3.1c-5.1,0-9.5,1.1-13.2,3.3c-3.7,2.2-6.6,5.4-8.6,9.6c-2,4.2-3,9.3-3,15.3v76.4
			h-28.9V343.8h28.9v18.3c2.5-4.7,5.5-8.6,8.9-11.7c3.4-3.1,7.3-5.4,11.7-7c4.5-1.5,9.3-2.3,14.6-2.3c6.2,0,11.6,0.9,16.4,2.6
			c4.7,1.7,8.8,4.2,12.1,7.5c3.4,3.3,6,7.4,7.8,12.3c4.4-7.3,9.9-12.8,16.6-16.6c6.7-3.8,14.3-5.7,22.6-5.7c9.1,0,16.6,1.9,22.4,5.7
			c5.8,3.8,10.2,9.3,13.1,16.5c2.9,7.2,4.4,16,4.4,26.3V469.3z"/>
		<path class="st0" d="M1263.3,469.3h-29.2V343.8h29.2V469.3z M1293.1,370.4c-2.4-1.2-5.4-1.8-9-1.8c-4.9,0-8.9,1.2-11.9,3.7
			c-3,2.5-5.2,6-6.7,10.5c-1.5,4.5-2.2,9.8-2.2,15.8l-9.8-5.7c0-10,1.9-18.9,5.6-26.6c3.7-7.7,8.5-13.9,14.5-18.4
			c5.9-4.5,12-6.8,18.4-6.8c4.5,0,8.8,0.7,12.8,2.2c4,1.5,7.5,3.8,10.4,7.1l-14.5,25.1C1298,373.3,1295.4,371.6,1293.1,370.4z"/>
	</g>
	<g>
		<g>
			<path class="st1" d="M98.6,387.4c-1.2,0-2.5-0.3-3.7-0.8c-2.3-1.1-4.5-2.5-6.5-4.2c-7.4-6.1-11.5-14.8-11.5-24.5l-0.1-131.1
				c0-8.5,3.3-16.5,9.3-22.6c6-6,14-9.3,22.6-9.3h100.9c12.5,0,23.6,7.1,28.9,18.4c5.3,11.3,3.6,24.2-4.4,33.8l-74.4,98.3
				c-2.8,3.8-8.2,4.5-12,1.7c-3.8-2.8-4.5-8.2-1.7-12l74.5-98.5c0.1-0.1,0.2-0.2,0.3-0.3c3.8-4.5,4.6-10.4,2.1-15.8
				c-2.5-5.4-7.5-8.6-13.4-8.6H108.7c-4,0-7.7,1.5-10.5,4.3c-2.8,2.8-4.3,6.5-4.3,10.5L94,357.9c0,5.8,2.8,9.4,5.2,11.3
				c0.9,0.8,2,1.4,3.1,2c4.3,2,6,7.2,4,11.4C104.8,385.6,101.7,387.4,98.6,387.4z"/>
		</g>
		<g>
			<path class="st1" d="M257.6,473.2H147.2c-8.5,0-16.5-3.3-22.6-9.3c-6-6-9.3-14-9.3-22.6l0.1-131.1c0-11.4,5.8-21.6,15.5-27.4
				c9.8-5.8,21.9-6,31.6-0.7c4.1,2.3,5.6,7.5,3.4,11.6c-2.3,4.1-7.5,5.6-11.6,3.4c-4.4-2.4-10.1-2.3-14.7,0.4
				c-4.5,2.7-7.1,7.3-7.1,12.7l-0.1,131.1c0,4,1.5,7.7,4.3,10.5c2.8,2.8,6.5,4.3,10.5,4.3h110.4c5.9,0,10.9-3.2,13.4-8.6
				c2.5-5.4,1.7-11.3-2.1-15.8l-81.2-96.6c-3-3.6-2.6-9,1-12c3.6-3,9-2.6,12,1l81.2,96.6c8.1,9.6,9.8,22.6,4.5,34
				C281.2,466.1,270.1,473.2,257.6,473.2z"/>
		</g>
	</g>
</g>
</svg>
